<svg width="146" height="50" viewBox="0 0 146 50" fill="none" xmlns="http://www.w3.org/2000/svg">
<g filter="url(#filter0_d_1042_365)">
<rect x="10" y="10" width="126" height="30" rx="15" fill="white" shape-rendering="crispEdges"/>
<g clip-path="url(#clip0_1042_365)">
<path fill-rule="evenodd" clip-rule="evenodd" d="M37 25C37 18.3724 31.6276 13 25 13C18.3724 13 13 18.3724 13 25C13 31.6276 18.3724 37 25 37C31.6276 37 37 31.6276 37 25Z" fill="url(#paint0_linear_1042_365)"/>
<path fill-rule="evenodd" clip-rule="evenodd" d="M18.1653 24.2962L25.9632 21.058C26.733 20.7206 29.3436 19.6412 29.3436 19.6412C29.3436 19.6412 30.5485 19.169 30.4483 20.3161C30.4147 20.7883 30.1471 22.441 29.8794 24.2285L29.043 29.5239C29.043 29.5239 28.9758 30.2997 28.407 30.4346C27.8381 30.5695 26.9009 29.9623 26.7335 29.8275C26.5997 29.7265 24.2231 28.2087 23.353 27.4667C23.1185 27.2641 22.8508 26.8596 23.3866 26.3873C24.5915 25.274 26.0309 23.8911 26.9009 23.0143C27.3024 22.6097 27.7043 21.6652 26.0309 22.8117L21.3117 26.016C21.3117 26.016 20.7765 26.3534 19.7721 26.0499C18.7683 25.7463 17.597 25.3417 17.597 25.3417C17.597 25.3417 16.7936 24.8356 18.1658 24.2962H18.1653Z" fill="white"/>
</g>
<path d="M48.7337 25.859V27.0547H44.8928V25.859H48.7337ZM45.2805 22.9091V30H43.9279V22.9091H45.2805ZM49.6985 22.9091V30H48.3505V22.9091H49.6985ZM53.6087 30.157C53.1593 30.157 52.7531 30.0739 52.3899 29.9077C52.0268 29.7384 51.739 29.4937 51.5266 29.1737C51.3174 28.8536 51.2127 28.4612 51.2127 27.9964C51.2127 27.5964 51.2897 27.267 51.4435 27.0085C51.5974 26.75 51.8052 26.5453 52.0668 26.3945C52.3284 26.2437 52.6207 26.1299 52.9439 26.0529C53.267 25.976 53.5964 25.9175 53.9318 25.8775C54.3565 25.8282 54.7012 25.7882 54.9659 25.7575C55.2306 25.7236 55.4229 25.6697 55.543 25.5959C55.663 25.522 55.723 25.402 55.723 25.2358V25.2035C55.723 24.8003 55.6091 24.4879 55.3814 24.2663C55.1567 24.0447 54.8213 23.9339 54.375 23.9339C53.9103 23.9339 53.544 24.037 53.2763 24.2433C53.0116 24.4464 52.8285 24.6726 52.7269 24.9219L51.4297 24.6264C51.5836 24.1955 51.8082 23.8478 52.1037 23.5831C52.4022 23.3153 52.7454 23.1214 53.1332 23.0014C53.521 22.8783 53.9287 22.8168 54.3565 22.8168C54.6397 22.8168 54.9397 22.8506 55.2567 22.9183C55.5768 22.983 55.8754 23.103 56.1523 23.2784C56.4324 23.4538 56.6617 23.7047 56.8402 24.0309C57.0187 24.354 57.108 24.7741 57.108 25.2912V30H55.7599V29.0305H55.7045C55.6153 29.209 55.4814 29.3845 55.3029 29.5568C55.1244 29.7292 54.8951 29.8723 54.6151 29.9862C54.335 30.1 53.9995 30.157 53.6087 30.157ZM53.9087 29.049C54.2904 29.049 54.6166 28.9736 54.8874 28.8228C55.1613 28.672 55.3691 28.475 55.5107 28.2319C55.6553 27.9857 55.7276 27.7225 55.7276 27.4425V26.5284C55.6784 26.5777 55.583 26.6238 55.4414 26.6669C55.3029 26.7069 55.1444 26.7423 54.9659 26.7731C54.7874 26.8008 54.6135 26.8269 54.4442 26.8516C54.275 26.8731 54.1334 26.8916 54.0195 26.907C53.7518 26.9408 53.5071 26.9978 53.2855 27.0778C53.067 27.1578 52.8916 27.2732 52.7592 27.424C52.63 27.5717 52.5653 27.7687 52.5653 28.0149C52.5653 28.3565 52.6915 28.6151 52.9439 28.7905C53.1963 28.9628 53.5179 29.049 53.9087 29.049ZM58.9465 22.9091H60.2991V28.8043H62.7504V22.9091H64.1031V28.8043H66.5544V22.9091H67.907V30H58.9465V22.9091ZM76.5006 22.9091V24.017H72.6274V22.9091H76.5006ZM73.6661 21.2102H75.0464V27.918C75.0464 28.1857 75.0864 28.3873 75.1665 28.5227C75.2465 28.6551 75.3496 28.7459 75.4758 28.7951C75.605 28.8413 75.7451 28.8643 75.8959 28.8643C76.0067 28.8643 76.1036 28.8567 76.1867 28.8413C76.2698 28.8259 76.3344 28.8136 76.3806 28.8043L76.6299 29.9446C76.5499 29.9754 76.436 30.0062 76.2883 30.0369C76.1405 30.0708 75.9559 30.0893 75.7343 30.0923C75.3711 30.0985 75.0326 30.0339 74.7187 29.8984C74.4047 29.763 74.1508 29.5537 73.9569 29.2706C73.7631 28.9875 73.6661 28.632 73.6661 28.2042V21.2102ZM80.9244 32.8068C80.3612 32.8068 79.8764 32.733 79.4702 32.5852C79.067 32.4375 78.7377 32.2421 78.4822 31.9989C78.2268 31.7558 78.036 31.4896 77.9098 31.2003L79.0962 30.7109C79.1793 30.8464 79.2901 30.9895 79.4286 31.1403C79.5702 31.2942 79.761 31.425 80.0011 31.5327C80.2442 31.6404 80.5566 31.6942 80.9382 31.6942C81.4614 31.6942 81.8938 31.5665 82.2354 31.3111C82.5771 31.0587 82.7479 30.6555 82.7479 30.1016V28.7074H82.6602C82.5771 28.8582 82.457 29.0259 82.3001 29.2106C82.1462 29.3952 81.9338 29.5553 81.663 29.6907C81.3922 29.8261 81.0398 29.8938 80.6058 29.8938C80.0457 29.8938 79.541 29.763 79.0916 29.5014C78.6454 29.2367 78.2914 28.8474 78.0298 28.3335C77.7713 27.8164 77.642 27.1809 77.642 26.4268C77.642 25.6728 77.7698 25.0265 78.0252 24.4879C78.2837 23.9493 78.6377 23.5369 79.087 23.2507C79.5363 22.9614 80.0457 22.8168 80.6151 22.8168C81.0552 22.8168 81.4106 22.8906 81.6815 23.0384C81.9523 23.183 82.1631 23.3523 82.3139 23.5462C82.4678 23.7401 82.5863 23.9109 82.6694 24.0586H82.771V22.9091H84.1236V30.157C84.1236 30.7663 83.982 31.2665 83.6989 31.6573C83.4157 32.0482 83.0326 32.3375 82.5494 32.5252C82.0692 32.7129 81.5276 32.8068 80.9244 32.8068ZM80.9105 28.7489C81.3075 28.7489 81.643 28.6566 81.9169 28.4719C82.1939 28.2842 82.4032 28.0165 82.5447 27.6687C82.6894 27.3178 82.7617 26.8977 82.7617 26.4084C82.7617 25.9313 82.6909 25.5112 82.5494 25.1481C82.4078 24.7849 82.2 24.5018 81.9261 24.2987C81.6522 24.0924 81.3137 23.9893 80.9105 23.9893C80.495 23.9893 80.1488 24.0971 79.8718 24.3125C79.5948 24.5249 79.3855 24.8142 79.244 25.1804C79.1055 25.5466 79.0362 25.956 79.0362 26.4084C79.0362 26.8731 79.107 27.2809 79.2486 27.6317C79.3902 27.9826 79.5994 28.2565 79.8764 28.4535C80.1565 28.6504 80.5012 28.7489 80.9105 28.7489ZM90.1527 25.4066V26.6023H85.9609V25.4066H90.1527ZM91.9924 30V22.9091H93.3727V25.8821H94.0375L96.378 22.9091H98.0861L95.3393 26.3576L98.1184 30H96.4057L94.2683 27.1655H93.3727V30H91.9924ZM101.254 30.157C100.805 30.157 100.399 30.0739 100.035 29.9077C99.6723 29.7384 99.3845 29.4937 99.1721 29.1737C98.9629 28.8536 98.8582 28.4612 98.8582 27.9964C98.8582 27.5964 98.9352 27.267 99.089 27.0085C99.2429 26.75 99.4507 26.5453 99.7123 26.3945C99.9739 26.2437 100.266 26.1299 100.589 26.0529C100.913 25.976 101.242 25.9175 101.577 25.8775C102.002 25.8282 102.347 25.7882 102.611 25.7575C102.876 25.7236 103.068 25.6697 103.188 25.5959C103.309 25.522 103.369 25.402 103.369 25.2358V25.2035C103.369 24.8003 103.255 24.4879 103.027 24.2663C102.802 24.0447 102.467 23.9339 102.021 23.9339C101.556 23.9339 101.19 24.037 100.922 24.2433C100.657 24.4464 100.474 24.6726 100.372 24.9219L99.0752 24.6264C99.2291 24.1955 99.4537 23.8478 99.7492 23.5831C100.048 23.3153 100.391 23.1214 100.779 23.0014C101.166 22.8783 101.574 22.8168 102.002 22.8168C102.285 22.8168 102.585 22.8506 102.902 22.9183C103.222 22.983 103.521 23.103 103.798 23.2784C104.078 23.4538 104.307 23.7047 104.486 24.0309C104.664 24.354 104.753 24.7741 104.753 25.2912V30H103.405V29.0305H103.35C103.261 29.209 103.127 29.3845 102.948 29.5568C102.77 29.7292 102.541 29.8723 102.261 29.9862C101.98 30.1 101.645 30.157 101.254 30.157ZM101.554 29.049C101.936 29.049 102.262 28.9736 102.533 28.8228C102.807 28.672 103.015 28.475 103.156 28.2319C103.301 27.9857 103.373 27.7225 103.373 27.4425V26.5284C103.324 26.5777 103.228 26.6238 103.087 26.6669C102.948 26.7069 102.79 26.7423 102.611 26.7731C102.433 26.8008 102.259 26.8269 102.09 26.8516C101.92 26.8731 101.779 26.8916 101.665 26.907C101.397 26.9408 101.153 26.9978 100.931 27.0778C100.713 27.1578 100.537 27.2732 100.405 27.424C100.275 27.5717 100.211 27.7687 100.211 28.0149C100.211 28.3565 100.337 28.6151 100.589 28.7905C100.842 28.9628 101.163 29.049 101.554 29.049ZM111.398 25.859V27.0547H107.557V25.859H111.398ZM107.945 22.9091V30H106.592V22.9091H107.945ZM112.363 22.9091V30H111.015V22.9091H112.363ZM116.273 30.157C115.823 30.157 115.417 30.0739 115.054 29.9077C114.691 29.7384 114.403 29.4937 114.191 29.1737C113.981 28.8536 113.877 28.4612 113.877 27.9964C113.877 27.5964 113.954 27.267 114.108 27.0085C114.261 26.75 114.469 26.5453 114.731 26.3945C114.992 26.2437 115.285 26.1299 115.608 26.0529C115.931 25.976 116.26 25.9175 116.596 25.8775C117.021 25.8282 117.365 25.7882 117.63 25.7575C117.895 25.7236 118.087 25.6697 118.207 25.5959C118.327 25.522 118.387 25.402 118.387 25.2358V25.2035C118.387 24.8003 118.273 24.4879 118.045 24.2663C117.821 24.0447 117.485 23.9339 117.039 23.9339C116.574 23.9339 116.208 24.037 115.94 24.2433C115.676 24.4464 115.493 24.6726 115.391 24.9219L114.094 24.6264C114.248 24.1955 114.472 23.8478 114.768 23.5831C115.066 23.3153 115.409 23.1214 115.797 23.0014C116.185 22.8783 116.593 22.8168 117.021 22.8168C117.304 22.8168 117.604 22.8506 117.921 22.9183C118.241 22.983 118.539 23.103 118.816 23.2784C119.096 23.4538 119.326 23.7047 119.504 24.0309C119.683 24.354 119.772 24.7741 119.772 25.2912V30H118.424V29.0305H118.369C118.279 29.209 118.145 29.3845 117.967 29.5568C117.788 29.7292 117.559 29.8723 117.279 29.9862C116.999 30.1 116.664 30.157 116.273 30.157ZM116.573 29.049C116.954 29.049 117.281 28.9736 117.551 28.8228C117.825 28.672 118.033 28.475 118.175 28.2319C118.319 27.9857 118.392 27.7225 118.392 27.4425V26.5284C118.342 26.5777 118.247 26.6238 118.105 26.6669C117.967 26.7069 117.808 26.7423 117.63 26.7731C117.451 26.8008 117.278 26.8269 117.108 26.8516C116.939 26.8731 116.797 26.8916 116.684 26.907C116.416 26.9408 116.171 26.9978 115.95 27.0778C115.731 27.1578 115.556 27.2732 115.423 27.424C115.294 27.5717 115.229 27.7687 115.229 28.0149C115.229 28.3565 115.356 28.6151 115.608 28.7905C115.86 28.9628 116.182 29.049 116.573 29.049ZM121.052 30L121.047 28.8043H121.301C121.498 28.8043 121.663 28.7628 121.795 28.6797C121.931 28.5935 122.041 28.4489 122.128 28.2457C122.214 28.0426 122.28 27.7625 122.326 27.4055C122.372 27.0455 122.406 26.593 122.428 26.0483L122.552 22.9091H127.501V30H126.149V24.1001H123.831L123.72 26.5099C123.693 27.0947 123.633 27.6056 123.54 28.0426C123.451 28.4796 123.32 28.8443 123.148 29.1367C122.975 29.426 122.754 29.643 122.483 29.7876C122.212 29.9292 121.883 30 121.495 30H121.052Z" fill="#292928"/>
</g>
<defs>
<filter id="filter0_d_1042_365" x="0" y="0" width="146" height="50" filterUnits="userSpaceOnUse" color-interpolation-filters="sRGB">
<feFlood flood-opacity="0" result="BackgroundImageFix"/>
<feColorMatrix in="SourceAlpha" type="matrix" values="0 0 0 0 0 0 0 0 0 0 0 0 0 0 0 0 0 0 127 0" result="hardAlpha"/>
<feOffset/>
<feGaussianBlur stdDeviation="5"/>
<feComposite in2="hardAlpha" operator="out"/>
<feColorMatrix type="matrix" values="0 0 0 0 0.1875 0 0 0 0 0.1875 0 0 0 0 0.1875 0 0 0 0.05 0"/>
<feBlend mode="normal" in2="BackgroundImageFix" result="effect1_dropShadow_1042_365"/>
<feBlend mode="normal" in="SourceGraphic" in2="effect1_dropShadow_1042_365" result="shape"/>
</filter>
<linearGradient id="paint0_linear_1042_365" x1="68.3305" y1="26.2311" x2="46.6793" y2="74.3445" gradientUnits="userSpaceOnUse">
<stop stop-color="#37AEE2"/>
<stop offset="1" stop-color="#1E96C8"/>
</linearGradient>
<clipPath id="clip0_1042_365">
<rect width="24" height="24" fill="white" transform="translate(13 13)"/>
</clipPath>
</defs>
</svg>
