<svg width="37" height="8" viewBox="0 0 37 8" fill="none" xmlns="http://www.w3.org/2000/svg">
<path d="M12.9998 1.00012L6.99976 7.00012L0.999757 1.00012" stroke="#666666" stroke-width="1.5" stroke-linecap="round" stroke-linejoin="round"/>
<path d="M26.2868 2.66089C25.5503 2.66089 24.9477 3.2635 24.9477 4.00001C24.9477 4.73653 25.5503 5.33914 26.2868 5.33914C27.0233 5.33914 27.6259 4.73653 27.6259 4.00001C27.6259 3.2635 27.0233 2.66089 26.2868 2.66089Z" fill="#666666"/>
<path d="M35.6607 2.66089C34.9241 2.66089 34.3215 3.2635 34.3215 4.00001C34.3215 4.73653 34.9241 5.33914 35.6607 5.33914C36.3972 5.33914 36.9998 4.73653 36.9998 4.00001C36.9998 3.2635 36.3972 2.66089 35.6607 2.66089Z" fill="#666666"/>
<path d="M30.9738 2.66089C30.2373 2.66089 29.6347 3.2635 29.6347 4.00001C29.6347 4.73653 30.2373 5.33914 30.9738 5.33914C31.7103 5.33914 32.313 4.73653 32.313 4.00001C32.313 3.2635 31.7103 2.66089 30.9738 2.66089Z" fill="#666666"/>
</svg>
